<?xml version="1.0" encoding="UTF-8" standalone="no"?>
<!-- Created with Inkscape (http://www.inkscape.org/) -->

<svg
   version="1.1"
   id="svg2"
   width="192"
   height="192"
   viewBox="0 0 192 192"
   sodipodi:docname="game.svg"
   inkscape:version="1.2.2 (b0a8486541, 2022-12-01)"
   xmlns:inkscape="http://www.inkscape.org/namespaces/inkscape"
   xmlns:sodipodi="http://sodipodi.sourceforge.net/DTD/sodipodi-0.dtd"
   xmlns="http://www.w3.org/2000/svg"
   xmlns:svg="http://www.w3.org/2000/svg">
  <sodipodi:namedview
     id="namedview187"
     pagecolor="#ffffff"
     bordercolor="#666666"
     borderopacity="1.0"
     inkscape:showpageshadow="2"
     inkscape:pageopacity="0.0"
     inkscape:pagecheckerboard="0"
     inkscape:deskcolor="#d1d1d1"
     showgrid="false"
     inkscape:zoom="4.0729167"
     inkscape:cx="96"
     inkscape:cy="96"
     inkscape:window-width="1920"
     inkscape:window-height="1011"
     inkscape:window-x="0"
     inkscape:window-y="0"
     inkscape:window-maximized="1"
     inkscape:current-layer="svg2" />
  <defs
     id="defs6" />
  <g
     id="g8">
    <path
       style="fill:#000000"
       d="M 47.923077,189.07692 C 45.958974,187.11282 45,185.1444 45,183.07692 V 180 H 25.423077 5.8461538 L 2.9230769,177.07692 C 0.49491327,174.64876 0,173.33167 0,169.29787 c 0,-4.5848 0.30352117,-5.14169 5.4349947,-9.97196 4.1384991,-3.89558 5.5928953,-6.03556 6.0969233,-8.97094 0.36406,-2.12023 1.685231,-4.75497 2.935935,-5.85497 3.73883,-3.28832 9.37677,-21.12199 11.302011,-35.75 0.730994,-5.5541 0.63928,-6.75 -0.51766,-6.75 C 22.668746,102 18,96.342415 18,93.211782 c 0,-3.626428 3.121323,-7.774432 6.485539,-8.618797 l 2.517172,-0.631769 -2.751356,-4.157579 C 21.942584,76.314848 21.5,74.576971 21.5,69 c 0,-5.581164 0.441999,-7.313964 2.758538,-10.814491 1.517196,-2.292638 4.634333,-5.409775 6.926971,-6.926971 C 34.686036,48.941999 36.418836,48.5 42,48.5 c 5.581164,0 7.313964,0.441999 10.814491,2.758538 2.292638,1.517196 5.409775,4.634333 6.926971,6.926971 C 62.058001,61.686036 62.5,63.418836 62.5,69 c 0,5.576971 -0.442584,7.314848 -2.751355,10.803637 l -2.751356,4.157579 2.517172,0.631769 C 62.878677,85.43735 66,89.585354 66,93.211782 66,96.345494 61.330343,102 58.742431,102 c -1.143008,0 -1.261449,1.09347 -0.62282,5.75 1.428081,10.41279 6.129935,28.57918 7.918193,30.59326 1.678648,1.89062 8.037692,-19.34527 10.1335,-33.84061 l 1.196676,-8.276619 -2.783241,-3.307693 c -2.278927,-2.708352 -2.680775,-3.951905 -2.21775,-6.863016 0.32389,-2.03635 1.648011,-4.496117 3.09925,-5.757356 C 78.631757,77.546886 79.070406,72 76.122445,72 c -1.032656,0 -2.480561,-0.726577 -3.217567,-1.614616 -1.147097,-1.382166 -1.018833,-1.874691 0.890937,-3.421128 l 2.230949,-1.806513 -3.596455,-8.179815 C 68.628618,48.331322 68.540204,46.024339 71.853696,41.93235 c 1.539659,-1.901398 3.077265,-2.396843 8.512685,-2.742944 L 87,38.767009 V 34.383504 C 87,30.155258 86.89102,30 83.923077,30 79.69997,30 75,25.259513 75,21 75,16.740487 79.69997,12 83.923077,12 86.692308,12 87,11.692308 87,8.9230769 87,4.6999703 91.740487,0 96,0 c 4.25951,0 9,4.6999703 9,8.9230769 C 105,11.692308 105.30769,12 108.07692,12 112.30003,12 117,16.740487 117,21 c 0,4.259513 -4.69997,9 -8.92308,9 C 105.10898,30 105,30.155258 105,34.383504 v 4.383505 l 6.63362,0.422397 c 5.43542,0.346101 6.97303,0.841546 8.51268,2.742944 3.3135,4.091989 3.22508,6.398972 -0.57661,15.045578 l -3.59645,8.179815 2.23095,1.806513 c 1.90976,1.546437 2.03803,2.038962 0.89093,3.421128 C 118.35812,71.273423 116.91021,72 115.87756,72 c -3.10734,0 -2.43647,5.287247 1.12244,8.846154 3.77026,3.770263 3.94195,7.880951 0.5,11.971477 -1.375,1.634094 -2.5,4.120777 -2.5,5.525961 0,9.150238 9.08426,41.988828 11.06087,39.983818 1.44448,-1.46522 6.01924,-18.56799 7.30972,-27.32741 l 1.25226,-8.5 -2.68312,-1.14778 C 128.52492,99.891442 126,96.303742 126,92.912352 c 0,-3.36172 3.22734,-7.50161 6.48554,-8.319367 l 2.51717,-0.631769 -2.75135,-4.157579 C 129.94258,76.314848 129.5,74.576971 129.5,69 c 0,-5.581164 0.442,-7.313964 2.75854,-10.814491 1.51719,-2.292638 4.63433,-5.409775 6.92697,-6.926971 C 142.68604,48.941999 144.41884,48.5 150,48.5 c 5.58116,0 7.31396,0.441999 10.81449,2.758538 2.29264,1.517196 5.40978,4.634333 6.92697,6.926971 C 170.058,61.686036 170.5,63.418836 170.5,69 c 0,5.576971 -0.44258,7.314848 -2.75136,10.803637 l -2.75135,4.157579 2.51717,0.631769 C 170.87868,85.43735 174,89.585354 174,93.211782 174,96.345494 169.33034,102 166.74243,102 c -3.92924,0 5.72249,38.14102 10.75479,42.5 1.26991,1.1 2.59189,3.65526 2.93773,5.67837 0.60708,3.55132 3.13161,6.85208 8.8453,11.56502 2.30879,1.9044 2.71975,3.01152 2.71975,7.32692 0,4.28531 -0.45899,5.54252 -2.92308,8.00661 L 186.15385,180 H 166.57692 147 v 3.07692 c 0,2.06748 -0.95897,4.0359 -2.92308,6 L 141.15385,192 H 96 50.846154 Z M 140.81642,182.75 141.13284,180 H 96.066422 51 v 2.33333 c 0,1.28334 0.304624,2.63796 0.676942,3.01028 0.372318,0.37232 20.509818,0.55982 44.75,0.41667 L 140.5,185.5 Z M 49.5,171 52.374182,168 H 29.187091 6 v 2.33333 c 0,1.28334 0.3,2.63334 0.6666667,3 C 7.0333333,173.7 16.174142,174 26.979575,174 h 19.646243 z m 84.94776,-0.67211 c -1.37058,-2.01966 -3.18895,-6.06966 -4.04082,-9 L 128.85808,156 H 95.976045 63.094008 l -1.041427,3.75 c -0.572785,2.0625 -1.043937,4.13474 -1.047004,4.60498 -0.0031,0.47023 -1.340352,2.83273 -2.971743,5.25 L 55.067667,174 h 40.93603 40.936033 z m 51.36866,0.42211 0.31642,-2.75 h -23.25351 -23.25351 l 2.89339,3.02005 2.89339,3.02005 20.0437,-0.27005 L 185.5,173.5 Z M 56.564872,157.25 c 0.378079,-2.6125 1.143488,-5.32182 1.700908,-6.02071 0.814379,-1.02107 -3.076508,-1.21753 -19.804874,-1 L 17.642541,150.5 l -0.723726,2.70864 c -0.398049,1.48975 -1.698263,4.07725 -2.889365,5.75 L 11.863812,162 h 22.006821 22.006821 z m 121.405678,1.70864 c -1.1911,-1.67275 -2.49132,-4.26025 -2.88937,-5.75 L 174.35746,150.5 153.53909,150.22929 c -16.72836,-0.21753 -20.61925,-0.0211 -19.80487,1 0.55742,0.69889 1.32283,3.40821 1.70091,6.02071 l 0.68742,4.75 h 22.00682 22.00682 z M 121.98258,145.96586 C 116.55339,135.32377 109,107.78002 109,98.624358 V 96 l -12.75,0.0012 -12.75,0.0012 -1.786388,11.0125 c -2.216118,13.66164 -5.755876,26.04328 -10.187746,35.63548 L 68.130136,150 H 96.085392 124.04065 Z M 60.707843,142.25 C 60.418862,141.2875 58.995756,136.675 57.545384,132 56.095013,127.325 54.102678,118.775 53.117973,113 L 51.3276,102.5 h -9.393349 -9.393349 l -1.2247,8.5 c -1.004109,6.96899 -3.523543,16.8026 -8.006454,31.25 C 22.805577,143.87483 24.142412,144 42,144 c 17.850886,0 19.195499,-0.12578 18.707843,-1.75 z m 107.999997,0 c -0.28898,-0.9625 -1.71208,-5.575 -3.16246,-10.25 -1.45037,-4.675 -3.4427,-13.225 -4.42741,-19 l -1.79037,-10.5 h -9.39335 -9.39335 l -1.2247,8.5 c -1.00411,6.96899 -3.52354,16.8026 -8.00645,31.25 -0.50417,1.62483 0.83266,1.75 18.69025,1.75 17.85089,0 19.1955,-0.12578 18.70784,-1.75 z M 59.5,93 V 90.5 L 42.227713,90.22629 c -14.720388,-0.23327 -17.358673,-0.04859 -17.856988,1.25 -0.321587,0.838041 -0.321587,2.209379 0,3.04742 0.498315,1.298588 3.1366,1.48327 17.856988,1.25 L 59.5,95.5 Z m 108,0 v -2.5 l -17.27229,-0.27371 c -14.72038,-0.23327 -17.35867,-0.04859 -17.85699,1.25 -0.32158,0.838041 -0.32158,2.209379 0,3.04742 0.49832,1.298588 3.13661,1.48327 17.85699,1.25 L 167.5,95.5 Z m -54,-6 V 84.5 L 96.227713,84.22629 c -14.720388,-0.23327 -17.358673,-0.04859 -17.856988,1.25 -0.321587,0.838041 -0.321587,2.209379 0,3.04742 0.498315,1.298588 3.1366,1.48327 17.856988,1.25 L 113.5,89.5 Z M 50.748951,81.178763 C 54.956741,78.182552 57.34169,72.723825 56.747228,67.44977 55.79965,59.042882 48.731403,53.319312 40.44977,54.252772 21.181016,56.42464 23.798578,85.259983 43.122238,83.692969 c 2.596758,-0.210579 5.938809,-1.312313 7.626713,-2.514206 z m 107.999999,0 c 4.20779,-2.996211 6.59274,-8.454938 5.99828,-13.728993 -0.94758,-8.406888 -8.01583,-14.130458 -16.29746,-13.196998 -19.26875,2.171868 -16.65119,31.007211 2.67247,29.440197 2.59676,-0.210579 5.93881,-1.312313 7.62671,-2.514206 z M 108,75 V 72 H 96 84 v 3 3 h 12 12 z m 5.25021,-18.309659 c 3.11061,-7.034362 3.65476,-9.099913 2.70028,-10.25 C 114.98769,45.280242 111.10599,45 96,45 73.109406,45 73.518664,44.767759 78.057136,55.181996 c 1.754033,4.024902 3.606474,8.118407 4.116536,9.096677 0.829153,1.590267 2.317844,1.749155 14.054139,1.5 L 109.35456,65.5 Z M 99,32.622445 c 0,-7.414271 0.752327,-8.357806 7.01962,-8.80369 C 110.04702,23.532227 110.5,23.247245 110.5,21 c 0,-2.247245 -0.45298,-2.532227 -4.48038,-2.818755 -5.84526,-0.415858 -6.855639,-1.397241 -7.218083,-7.010918 C 98.528132,6.9357214 98.266761,6.5 96,6.5 c -2.247245,0 -2.532227,0.4529759 -2.818755,4.480381 -0.415858,5.845256 -1.397241,6.855638 -7.010918,7.218082 C 81.935721,18.471868 81.5,18.733239 81.5,21 c 0,2.247245 0.452976,2.532227 4.480381,2.818755 C 92.247673,24.264639 93,25.208174 93,32.622445 V 39 h 3 3 z"
       id="path290" />
  </g>
</svg>
